<svg aria-hidden="true" style="position: absolute; width: 0; height: 0; overflow: hidden;" version="1.1" xmlns="http://www.w3.org/2000/svg" xmlns:xlink="http://www.w3.org/1999/xlink">
<defs>
<symbol id="icon-instagram" viewBox="0 0 32 32">
<path fill="#efedee" style="fill: var(--color1, #efedee)" d="M16 1.397c3.968 0 4.463 0.015 6.020 0.088 1.555 0.073 2.614 0.317 3.546 0.679 0.964 0.371 1.776 0.873 2.588 1.684 0.743 0.73 1.317 1.613 1.684 2.588 0.361 0.93 0.606 1.99 0.679 3.546 0.069 1.557 0.088 2.052 0.088 6.019s-0.015 4.463-0.088 6.019c-0.073 1.555-0.318 2.614-0.679 3.546-0.366 0.975-0.94 1.858-1.684 2.588-0.73 0.742-1.613 1.317-2.588 1.684-0.93 0.361-1.99 0.606-3.546 0.679-1.557 0.069-2.052 0.088-6.020 0.088s-4.463-0.015-6.019-0.088c-1.555-0.073-2.614-0.318-3.546-0.679-0.975-0.366-1.858-0.941-2.588-1.684-0.743-0.73-1.317-1.613-1.684-2.588-0.362-0.93-0.606-1.99-0.679-3.546-0.069-1.557-0.088-2.052-0.088-6.019s0.015-4.463 0.088-6.019c0.073-1.557 0.317-2.614 0.679-3.546 0.365-0.975 0.94-1.859 1.684-2.588 0.73-0.743 1.613-1.318 2.588-1.684 0.932-0.362 1.989-0.606 3.546-0.679 1.557-0.069 2.052-0.088 6.019-0.088zM16 8.699c-1.936 0-3.794 0.769-5.163 2.139s-2.139 3.226-2.139 5.163c0 1.936 0.769 3.794 2.139 5.163s3.226 2.139 5.163 2.139c1.937 0 3.794-0.769 5.163-2.139s2.139-3.227 2.139-5.163c0-1.937-0.769-3.794-2.139-5.163s-3.226-2.139-5.163-2.139zM25.492 8.333c0-0.484-0.192-0.948-0.535-1.291s-0.807-0.535-1.291-0.535-0.948 0.192-1.291 0.535c-0.342 0.342-0.535 0.807-0.535 1.291s0.192 0.948 0.535 1.291c0.342 0.342 0.807 0.535 1.291 0.535s0.948-0.192 1.291-0.535c0.342-0.342 0.535-0.807 0.535-1.291zM16 11.619c1.162 0 2.276 0.462 3.098 1.283s1.283 1.936 1.283 3.098-0.462 2.276-1.283 3.098c-0.822 0.822-1.936 1.283-3.098 1.283s-2.276-0.462-3.098-1.283c-0.822-0.822-1.283-1.936-1.283-3.098s0.462-2.276 1.283-3.098c0.822-0.822 1.936-1.283 3.098-1.283z"></path>
</symbol>
<symbol id="icon-facebook" viewBox="0 0 32 32">
<path fill="#efedee" style="fill: var(--color1, #efedee)" d="M0 16.089c0 7.955 5.777 14.569 13.333 15.911v-11.556h-4v-4.444h4v-3.556c0-4 2.577-6.221 6.223-6.221 1.155 0 2.4 0.177 3.555 0.355v4.089h-2.044c-1.956 0-2.4 0.977-2.4 2.223v3.111h4.267l-0.711 4.444h-3.556v11.556c7.556-1.341 13.333-7.955 13.333-15.911 0-8.849-7.2-16.089-16-16.089s-16 7.24-16 16.089z"></path>
</symbol>
<symbol id="icon-telegram" viewBox="0 0 32 32">
<path fill="#efedee" style="fill: var(--color1, #efedee)" d="M28.836 2.859c0 0 2.863-1.116 2.623 1.595-0.079 1.116-0.794 5.024-1.351 9.25l-1.908 12.519c0 0-0.159 1.834-1.591 2.153s-3.578-1.116-3.976-1.435c-0.318-0.239-5.964-3.828-7.952-5.581-0.557-0.479-1.194-1.435 0.080-2.552l8.349-7.974c0.954-0.956 1.908-3.189-2.068-0.478l-11.134 7.575c0 0-1.273 0.798-3.658 0.080l-5.17-1.595c0 0-1.908-1.196 1.352-2.392 7.953-3.748 17.734-7.575 26.402-11.163h0.002z"></path>
</symbol>
<symbol id="icon-whatsapp" viewBox="0 0 32 32">
<path fill="#efedee" style="fill: var(--color1, #efedee)" d="M29.171 7.671c-4.648-7.166-14.139-9.297-21.499-4.842-7.166 4.455-9.491 14.139-4.842 21.305l0.387 0.581-1.549 5.811 5.811-1.549 0.581 0.387c2.518 1.356 5.229 2.131 7.941 2.131 2.905 0 5.811-0.775 8.328-2.324 7.166-4.648 9.297-14.139 4.842-21.499zM25.103 22.585c-0.775 1.162-1.743 1.937-3.099 2.131-0.775 0-1.743 0.387-5.617-1.162-3.293-1.549-6.004-4.067-7.941-6.973-1.162-1.356-1.743-3.099-1.937-4.842 0-1.549 0.581-2.905 1.549-3.874 0.387-0.387 0.775-0.581 1.162-0.581h0.968c0.387 0 0.775 0 0.968 0.775 0.387 0.968 1.356 3.293 1.356 3.486 0.194 0.194 0.194 0.581 0 0.775 0.194 0.387 0 0.775-0.194 0.968s-0.387 0.581-0.581 0.775c-0.387 0.194-0.581 0.581-0.387 0.968 0.775 1.162 1.743 2.324 2.712 3.293 1.162 0.968 2.324 1.743 3.68 2.324 0.387 0.194 0.775 0.194 0.968-0.194s1.162-1.356 1.549-1.743c0.387-0.387 0.581-0.387 0.968-0.194l3.099 1.549c0.387 0.194 0.775 0.387 0.968 0.581 0.194 0.581 0.194 1.356-0.194 1.937z"></path>
</symbol>
<symbol id="icon-twitter" viewBox="0 0 32 32">
<path fill="#efedee" style="fill: var(--color1, #efedee)" d="M31.524 6.583c-1.113 0.493-2.309 0.827-3.567 0.977 1.297-0.776 2.268-1.998 2.731-3.437-1.219 0.724-2.553 1.234-3.944 1.507-0.936-0.999-2.175-1.661-3.525-1.883s-2.736 0.007-3.943 0.653c-1.207 0.646-2.166 1.672-2.729 2.919s-0.699 2.645-0.387 3.978c-2.47-0.124-4.886-0.766-7.091-1.884s-4.151-2.688-5.711-4.607c-0.533 0.92-0.84 1.987-0.84 3.123-0.001 1.023 0.251 2.030 0.733 2.932s1.179 1.671 2.030 2.239c-0.986-0.031-1.951-0.298-2.813-0.777v0.080c-0 1.434 0.496 2.825 1.404 3.935s2.173 1.872 3.578 2.156c-0.915 0.248-1.874 0.284-2.805 0.107 0.397 1.234 1.169 2.313 2.21 3.086s2.297 1.202 3.593 1.225c-2.2 1.727-4.918 2.664-7.715 2.66-0.495 0-0.991-0.029-1.483-0.087 2.839 1.826 6.144 2.794 9.52 2.791 11.427 0 17.673-9.464 17.673-17.672 0-0.267-0.007-0.536-0.019-0.803 1.215-0.879 2.264-1.967 3.097-3.213l0.003-0.004z"></path>
</symbol>
<symbol id="icon-mouse" viewBox="0 0 19 32">
<path fill="none" stroke="#c7b79e" style="stroke: var(--color1, #c7b79e)" stroke-linejoin="miter" stroke-linecap="butt" stroke-miterlimit="4" stroke-width="0.6667" d="M9.333 0.667c4.786 0 8.667 3.88 8.667 8.667v13.333c0 4.786-3.88 8.667-8.667 8.667s-8.667-3.88-8.667-8.667v-13.333c0-4.786 3.88-8.667 8.667-8.667z"></path>
<path fill="none" stroke="#c7b79e" style="stroke: var(--color1, #c7b79e)" stroke-linejoin="miter" stroke-linecap="butt" stroke-miterlimit="4" stroke-width="0.6667" d="M9.667 5.333v8"></path>
</symbol>
<symbol id="icon-plus" viewBox="0 0 32 32">
<path fill="#c7b79e" style="fill: var(--color1, #c7b79e)" d="M11.378 0h8.533v32h-8.533v-32z"></path>
<path fill="#c7b79e" style="fill: var(--color1, #c7b79e)" d="M0 19.911v-8.533h32v8.533h-32z"></path>
</symbol>
</defs>
</svg>
